<svg version="1.1" id="Layer_1" xmlns="http://www.w3.org/2000/svg" xmlns:xlink="http://www.w3.org/1999/xlink" x="0px" y="0px"
	 width="100%" viewBox="0 0 500 500" enable-background="new 0 0 500 500" xml:space="preserve">
<path fill="#2145D9" opacity="1.000000" stroke="none" 
	d="
M453.000000,501.000000 
	C302.000031,501.000000 151.500076,501.000000 1.000054,501.000000 
	C1.000000,417.666718 1.000000,334.333435 1.000000,251.000168 
	C1.000000,167.666855 1.000000,84.333542 1.000000,1.000170 
	C167.666550,1.000113 334.333099,1.000113 500.999756,1.000057 
	C500.999817,167.666519 500.999817,334.333038 500.999908,500.999756 
	C485.166656,501.000000 469.333344,501.000000 453.000000,501.000000 
M114.375603,226.251511 
	C112.905182,231.054596 111.434753,235.857681 109.224922,240.698547 
	C107.670044,240.604431 106.115166,240.510330 104.264755,240.398331 
	C103.782310,243.619263 103.378273,246.316696 102.570259,249.653320 
	C101.428329,256.099548 100.286407,262.545776 98.973625,269.735352 
	C97.285316,274.749054 99.474922,277.029938 104.248474,278.578644 
	C112.184525,281.153381 119.903252,284.397980 128.445480,287.638123 
	C128.866241,282.149017 129.217621,277.565155 129.801315,272.139282 
	C130.153458,267.437042 130.505615,262.734802 131.046417,257.214508 
	C131.373184,252.466766 131.699936,247.719009 132.209488,242.218643 
	C132.183304,239.074799 132.415024,235.903168 132.079712,232.792648 
	C131.264969,225.234482 124.743500,221.448257 116.837448,224.114365 
	C116.225121,224.711105 115.612785,225.307861 114.375603,226.251511 
M371.947388,269.891510 
	C369.921722,269.350159 367.896057,268.808838 365.870392,268.267517 
	C369.662537,266.317291 373.890656,266.220398 376.380066,264.090912 
	C379.107208,261.758057 380.229279,257.548828 382.557495,253.213882 
	C381.853729,253.389130 382.489685,253.276276 383.095215,253.072891 
	C388.565308,251.235718 389.259369,251.749771 389.363525,257.690796 
	C389.416016,260.685760 389.247101,263.714203 389.636261,266.667175 
	C390.330627,271.935944 394.030304,274.021332 399.032104,272.165527 
	C400.566833,271.596069 401.992035,270.731293 403.605896,269.933258 
	C403.971375,270.981415 404.311768,271.957642 404.688599,273.038300 
	C408.027283,272.023865 411.087555,271.094055 413.864532,270.250305 
	C407.525787,263.776611 412.529572,255.824875 410.373810,248.723831 
	C407.032135,249.222580 403.650909,249.727234 400.897491,250.138184 
	C402.304108,252.560028 403.913361,254.350723 404.386902,256.403412 
	C404.933044,258.770874 405.071075,261.582092 404.276520,263.803619 
	C403.584442,265.738647 401.554962,268.157288 399.748749,268.517212 
	C396.669037,269.130951 395.683105,266.339722 395.656921,263.582336 
	C395.611572,258.801636 395.644318,254.020187 395.644318,250.207901 
	C387.444092,249.692841 379.510529,249.101379 371.566681,248.732651 
	C367.223389,248.531082 363.226929,250.241043 361.960175,254.402145 
	C361.184479,256.950348 362.582550,260.209167 363.208984,263.104553 
	C363.388245,263.933258 364.281647,264.607422 364.833038,265.333344 
	C359.862427,269.807129 359.859070,269.881165 363.041992,273.414398 
	C361.813965,277.274719 359.276642,281.106476 360.305176,283.078430 
	C361.559479,285.483368 365.664886,287.032288 368.799469,287.677673 
	C373.504120,288.646301 377.864014,286.536804 380.655945,282.755402 
	C382.379517,280.420990 383.913757,276.953217 383.458771,274.357849 
	C383.162079,272.665436 379.212463,271.470795 376.759583,270.362122 
	C375.614349,269.844513 374.138214,270.059052 371.947388,269.891510 
M243.645279,272.872833 
	C253.752853,272.572876 260.364594,262.662994 256.081329,254.233246 
	C253.084686,248.335663 248.700516,247.600174 240.171829,251.720230 
	C239.787979,250.731476 239.411575,249.761887 238.954391,248.584229 
	C236.114639,249.548355 233.517563,250.430099 230.828186,251.343185 
	C234.831940,257.123901 234.804871,281.500549 231.045288,286.295532 
	C235.074081,286.295532 239.148605,286.295532 243.963898,286.295532 
	C240.301849,283.753754 238.238800,275.317780 240.189880,272.676880 
	C240.495300,272.263489 241.908356,272.668427 243.645279,272.872833 
M194.494354,271.982758 
	C196.470245,271.982758 198.446152,271.982758 201.184952,271.982758 
	C195.898361,268.042511 198.111328,262.942352 197.921310,258.426941 
	C197.535568,249.260971 192.943710,246.454941 184.947479,250.852600 
	C184.422119,251.141541 183.828278,251.306015 182.882751,251.680145 
	C182.882751,245.494522 182.882751,239.718140 182.882751,233.383011 
	C179.633896,234.464600 176.809509,235.404877 173.716034,236.434753 
	C177.852875,241.414520 177.700256,266.778107 174.067978,271.755005 
	C177.718796,271.755005 181.400848,271.755005 183.627243,271.755005 
	C183.353348,266.621185 182.826599,261.727844 183.005844,256.860535 
	C183.055145,255.522293 185.107269,253.365311 186.434555,253.206451 
	C187.893036,253.031891 190.782150,254.539719 190.956177,255.644135 
	C191.805649,261.035400 193.334595,266.700043 188.959641,271.987976 
	C190.706604,271.987976 192.152664,271.987976 194.494354,271.982758 
M289.000122,249.525070 
	C287.238678,246.365082 285.477234,243.205109 283.680420,239.981659 
	C285.305023,238.783768 286.477844,237.918976 288.257355,236.606873 
	C282.173706,236.606873 277.026001,236.606873 272.698273,236.606873 
	C276.557678,242.372971 280.822662,248.012482 284.277100,254.111084 
	C287.762360,260.264130 285.712494,268.046234 280.178772,271.787537 
	C286.263123,271.787537 292.068451,271.787537 298.112671,271.787537 
	C296.170746,270.167572 293.304291,268.906189 293.243652,267.521881 
	C293.029755,262.638336 292.542938,257.152740 294.454926,252.936325 
	C297.209015,246.862991 300.059662,240.197174 308.019043,236.730652 
	C302.508148,236.730652 298.304932,236.730652 293.250854,236.730652 
	C295.429352,238.183990 296.729248,239.051163 298.451782,240.200302 
	C296.158630,244.520447 294.021545,248.546524 291.630280,253.051514 
	C290.559448,251.713104 289.960815,250.964874 289.000122,249.525070 
M150.444901,251.902390 
	C153.685898,254.205078 157.253708,256.176086 160.049393,258.930725 
	C161.820282,260.675629 163.119553,263.536926 163.304688,265.997314 
	C163.404480,267.323456 160.634109,270.114166 159.298172,270.030029 
	C156.804672,269.872955 154.092728,268.497620 152.080383,266.874542 
	C150.477310,265.581573 149.779724,263.165985 148.460526,260.865845 
	C145.769913,269.194611 149.973251,273.692444 158.971481,272.831757 
	C163.895233,272.360809 168.072586,270.552673 169.694946,265.336792 
	C171.211288,260.461731 169.564423,256.174377 164.891327,252.755798 
	C162.611740,251.088181 159.849777,249.932938 157.956635,247.930725 
	C156.449860,246.337128 155.386139,243.854736 155.207336,241.678070 
	C155.120804,240.624557 157.585663,238.344025 158.776062,238.422760 
	C160.998611,238.569717 163.354279,239.723724 165.229324,241.056793 
	C166.506104,241.964539 167.059662,243.889511 167.936615,245.359634 
	C168.519089,245.126526 169.101562,244.893402 169.684036,244.660294 
	C168.896194,242.124191 168.817383,238.891663 167.162674,237.207031 
	C164.325027,234.318115 155.193344,235.631226 151.707291,238.676346 
	C148.087677,241.838104 147.529984,245.980911 150.444901,251.902390 
M333.028748,250.593735 
	C332.721863,251.438797 332.008820,252.373123 332.171844,253.114914 
	C333.581696,259.530701 335.000458,265.900421 330.808380,271.656555 
	C334.502686,271.656555 338.323914,271.656555 342.578308,271.656555 
	C339.777100,269.022369 338.125061,256.886230 340.188293,254.601059 
	C341.144073,253.542511 343.094025,252.893036 344.563843,252.941940 
	C345.737518,252.980972 347.765411,254.255356 347.868774,255.158279 
	C348.507965,260.743195 350.102356,266.531891 346.048035,271.868042 
	C349.913940,271.868042 353.637726,271.868042 356.547546,271.868042 
	C355.956879,269.345856 355.139374,266.867279 354.847412,264.328217 
	C354.545013,261.698853 354.923065,258.996643 354.703094,256.351288 
	C354.149750,249.697784 349.658661,247.127304 343.485870,249.823898 
	C342.433899,250.283478 341.441315,250.878983 340.277863,251.486633 
	C339.996887,250.270111 339.756897,249.231064 339.489227,248.072235 
	C337.426117,248.865784 335.578674,249.576370 333.028748,250.593735 
M212.641327,249.102676 
	C211.199448,249.909653 209.588669,250.515930 208.347107,251.560898 
	C204.502335,254.796814 202.817139,258.963837 203.805130,263.985657 
	C204.652405,268.292236 207.326355,271.001465 211.505585,272.257202 
	C216.519272,273.763672 222.073456,272.284515 225.028534,268.364899 
	C228.027893,264.386505 229.067200,259.896942 226.729248,255.277206 
	C223.978638,249.842148 219.261795,248.046371 212.641327,249.102676 
M309.095367,271.500885 
	C312.276428,271.500885 315.457489,271.500885 320.179413,271.500885 
	C322.150574,273.533539 325.417755,273.858368 327.556976,271.137787 
	C326.070953,268.152710 324.611816,266.395721 324.379974,264.489471 
	C324.002380,261.385040 324.832886,258.121918 324.369598,255.043762 
	C324.061493,252.996643 322.866577,250.362015 321.232758,249.377655 
	C317.175293,246.933105 309.028229,251.791443 308.465118,257.366516 
	C310.208679,256.417542 311.485748,254.947540 312.948242,253.693832 
	C313.830780,252.937241 315.007751,252.080399 316.040405,252.095413 
	C316.753052,252.105759 317.853333,253.430878 318.076202,254.340866 
	C319.073395,258.412781 317.301392,260.590637 313.319214,262.063873 
	C306.918518,264.431885 306.338867,266.027679 309.095367,271.500885 
z"/>
<path fill="#F2F4FD" opacity="1.000000" stroke="none" 
	d="
M372.379700,269.916626 
	C374.138214,270.059052 375.614349,269.844513 376.759583,270.362122 
	C379.212463,271.470795 383.162079,272.665436 383.458771,274.357849 
	C383.913757,276.953217 382.379517,280.420990 380.655945,282.755402 
	C377.864014,286.536804 373.504120,288.646301 368.799469,287.677673 
	C365.664886,287.032288 361.559479,285.483368 360.305176,283.078430 
	C359.276642,281.106476 361.813965,277.274719 363.041992,273.414398 
	C359.859070,269.881165 359.862427,269.807129 364.833038,265.333344 
	C364.281647,264.607422 363.388245,263.933258 363.208984,263.104553 
	C362.582550,260.209167 361.184479,256.950348 361.960175,254.402145 
	C363.226929,250.241043 367.223389,248.531082 371.566681,248.732651 
	C379.510529,249.101379 387.444092,249.692841 395.644318,250.207901 
	C395.644318,254.020187 395.611572,258.801636 395.656921,263.582336 
	C395.683105,266.339722 396.669037,269.130951 399.748749,268.517212 
	C401.554962,268.157288 403.584442,265.738647 404.276520,263.803619 
	C405.071075,261.582092 404.933044,258.770874 404.386902,256.403412 
	C403.913361,254.350723 402.304108,252.560028 400.897491,250.138184 
	C403.650909,249.727234 407.032135,249.222580 410.373810,248.723831 
	C412.529572,255.824875 407.525787,263.776611 413.864532,270.250305 
	C411.087555,271.094055 408.027283,272.023865 404.688599,273.038300 
	C404.311768,271.957642 403.971375,270.981415 403.605896,269.933258 
	C401.992035,270.731293 400.566833,271.596069 399.032104,272.165527 
	C394.030304,274.021332 390.330627,271.935944 389.636261,266.667175 
	C389.247101,263.714203 389.416016,260.685760 389.363525,257.690796 
	C389.259369,251.749771 388.565308,251.235718 383.095215,253.072891 
	C382.489685,253.276276 381.853729,253.389130 382.557495,253.213882 
	C380.229279,257.548828 379.107208,261.758057 376.380066,264.090912 
	C373.890656,266.220398 369.662537,266.317291 365.870392,268.267517 
	C367.896057,268.808838 369.921722,269.350159 372.379700,269.916626 
M364.218262,280.413055 
	C366.958954,285.880493 374.430664,286.988831 377.207581,282.149231 
	C377.989594,280.786316 378.117004,277.904663 377.223602,276.927917 
	C373.924591,273.321045 366.280853,275.125458 364.218262,280.413055 
M374.379517,253.465759 
	C372.928925,252.653488 371.196136,250.926346 370.100342,251.264359 
	C368.780060,251.671600 367.607086,253.705719 367.101288,255.271652 
	C366.623077,256.752319 366.606934,258.776642 367.270508,260.128448 
	C368.042145,261.700348 369.774200,262.800751 371.089447,264.105774 
	C372.355316,262.784424 374.186554,261.660675 374.735962,260.088867 
	C375.346954,258.340851 374.790131,256.184631 374.379517,253.465759 
z"/>
<path fill="#E83FA9" opacity="1.000000" stroke="none" 
	d="
M99.144485,268.992004 
	C100.286407,262.545776 101.428329,256.099548 103.108459,249.423218 
	C111.794151,254.980576 120.889023,257.851593 130.857758,258.032562 
	C130.505615,262.734802 130.153458,267.437042 129.254272,272.563232 
	C124.738945,272.689178 120.740364,272.603729 116.809448,272.043457 
	C110.896263,271.200745 105.030441,270.025726 99.144485,268.992004 
z"/>
<path fill="#F2F4FD" opacity="1.000000" stroke="none" 
	d="
M243.227264,272.783905 
	C241.908356,272.668427 240.495300,272.263489 240.189880,272.676880 
	C238.238800,275.317780 240.301849,283.753754 243.963898,286.295532 
	C239.148605,286.295532 235.074081,286.295532 231.045288,286.295532 
	C234.804871,281.500549 234.831940,257.123901 230.828186,251.343185 
	C233.517563,250.430099 236.114639,249.548355 238.954391,248.584229 
	C239.411575,249.761887 239.787979,250.731476 240.171829,251.720230 
	C248.700516,247.600174 253.084686,248.335663 256.081329,254.233246 
	C260.364594,262.662994 253.752853,272.572876 243.227264,272.783905 
M239.847305,256.937378 
	C239.862854,259.575745 239.274582,262.416656 240.071533,264.792969 
	C240.802078,266.971313 243.027588,268.648285 244.594391,270.546173 
	C246.414886,268.888885 249.255478,267.515961 249.815506,265.507233 
	C250.644501,262.533783 250.370392,258.967529 249.538239,255.935776 
	C249.118225,254.405533 246.411972,252.527039 244.789368,252.572876 
	C243.115875,252.620163 241.503006,254.813278 239.847305,256.937378 
z"/>
<path fill="#F2F4FD" opacity="1.000000" stroke="none" 
	d="
M194.046539,271.985352 
	C192.152664,271.987976 190.706604,271.987976 188.959641,271.987976 
	C193.334595,266.700043 191.805649,261.035400 190.956177,255.644135 
	C190.782150,254.539719 187.893036,253.031891 186.434555,253.206451 
	C185.107269,253.365311 183.055145,255.522293 183.005844,256.860535 
	C182.826599,261.727844 183.353348,266.621185 183.627243,271.755005 
	C181.400848,271.755005 177.718796,271.755005 174.067978,271.755005 
	C177.700256,266.778107 177.852875,241.414520 173.716034,236.434753 
	C176.809509,235.404877 179.633896,234.464600 182.882751,233.383011 
	C182.882751,239.718140 182.882751,245.494522 182.882751,251.680145 
	C183.828278,251.306015 184.422119,251.141541 184.947479,250.852600 
	C192.943710,246.454941 197.535568,249.260971 197.921310,258.426941 
	C198.111328,262.942352 195.898361,268.042511 201.184952,271.982758 
	C198.446152,271.982758 196.470245,271.982758 194.046539,271.985352 
z"/>
<path fill="#F2F4FD" opacity="1.000000" stroke="none" 
	d="
M289.181152,249.870850 
	C289.960815,250.964874 290.559448,251.713104 291.630280,253.051514 
	C294.021545,248.546524 296.158630,244.520447 298.451782,240.200302 
	C296.729248,239.051163 295.429352,238.183990 293.250854,236.730652 
	C298.304932,236.730652 302.508148,236.730652 308.019043,236.730652 
	C300.059662,240.197174 297.209015,246.862991 294.454926,252.936325 
	C292.542938,257.152740 293.029755,262.638336 293.243652,267.521881 
	C293.304291,268.906189 296.170746,270.167572 298.112671,271.787537 
	C292.068451,271.787537 286.263123,271.787537 280.178772,271.787537 
	C285.712494,268.046234 287.762360,260.264130 284.277100,254.111084 
	C280.822662,248.012482 276.557678,242.372971 272.698273,236.606873 
	C277.026001,236.606873 282.173706,236.606873 288.257355,236.606873 
	C286.477844,237.918976 285.305023,238.783768 283.680420,239.981659 
	C285.477234,243.205109 287.238678,246.365082 289.181152,249.870850 
z"/>
<path fill="#F2F4FD" opacity="1.000000" stroke="none" 
	d="
M150.225754,251.606293 
	C147.529984,245.980911 148.087677,241.838104 151.707291,238.676346 
	C155.193344,235.631226 164.325027,234.318115 167.162674,237.207031 
	C168.817383,238.891663 168.896194,242.124191 169.684036,244.660294 
	C169.101562,244.893402 168.519089,245.126526 167.936615,245.359634 
	C167.059662,243.889511 166.506104,241.964539 165.229324,241.056793 
	C163.354279,239.723724 160.998611,238.569717 158.776062,238.422760 
	C157.585663,238.344025 155.120804,240.624557 155.207336,241.678070 
	C155.386139,243.854736 156.449860,246.337128 157.956635,247.930725 
	C159.849777,249.932938 162.611740,251.088181 164.891327,252.755798 
	C169.564423,256.174377 171.211288,260.461731 169.694946,265.336792 
	C168.072586,270.552673 163.895233,272.360809 158.971481,272.831757 
	C149.973251,273.692444 145.769913,269.194611 148.460526,260.865845 
	C149.779724,263.165985 150.477310,265.581573 152.080383,266.874542 
	C154.092728,268.497620 156.804672,269.872955 159.298172,270.030029 
	C160.634109,270.114166 163.404480,267.323456 163.304688,265.997314 
	C163.119553,263.536926 161.820282,260.675629 160.049393,258.930725 
	C157.253708,256.176086 153.685898,254.205078 150.225754,251.606293 
z"/>
<path fill="#ED57B3" opacity="1.000000" stroke="none" 
	d="
M130.952087,257.623535 
	C120.889023,257.851593 111.794151,254.980576 103.310455,249.103607 
	C103.378273,246.316696 103.782310,243.619263 104.264755,240.398331 
	C106.115166,240.510330 107.670044,240.604431 109.908325,240.769821 
	C111.025490,240.831619 111.459236,240.822128 112.293098,240.896667 
	C113.781624,240.993881 114.870033,241.007080 116.172752,241.185028 
	C117.030251,241.344223 117.673454,241.338684 118.780319,241.451569 
	C121.133965,241.711990 123.023941,241.854019 125.265411,242.171814 
	C127.753510,242.555481 129.890106,242.763367 132.026703,242.971268 
	C131.699936,247.719009 131.373184,252.466766 130.952087,257.623535 
z"/>
<path fill="#F2F4FD" opacity="1.000000" stroke="none" 
	d="
M333.380005,250.440353 
	C335.578674,249.576370 337.426117,248.865784 339.489227,248.072235 
	C339.756897,249.231064 339.996887,250.270111 340.277863,251.486633 
	C341.441315,250.878983 342.433899,250.283478 343.485870,249.823898 
	C349.658661,247.127304 354.149750,249.697784 354.703094,256.351288 
	C354.923065,258.996643 354.545013,261.698853 354.847412,264.328217 
	C355.139374,266.867279 355.956879,269.345856 356.547546,271.868042 
	C353.637726,271.868042 349.913940,271.868042 346.048035,271.868042 
	C350.102356,266.531891 348.507965,260.743195 347.868774,255.158279 
	C347.765411,254.255356 345.737518,252.980972 344.563843,252.941940 
	C343.094025,252.893036 341.144073,253.542511 340.188293,254.601059 
	C338.125061,256.886230 339.777100,269.022369 342.578308,271.656555 
	C338.323914,271.656555 334.502686,271.656555 330.808380,271.656555 
	C335.000458,265.900421 333.581696,259.530701 332.171844,253.114914 
	C332.008820,252.373123 332.721863,251.438797 333.380005,250.440353 
z"/>
<path fill="#E137A4" opacity="1.000000" stroke="none" 
	d="
M99.059052,269.363678 
	C105.030441,270.025726 110.896263,271.200745 116.809448,272.043457 
	C120.740364,272.603729 124.738945,272.689178 129.138123,272.984222 
	C129.217621,277.565155 128.866241,282.149017 128.445480,287.638123 
	C119.903252,284.397980 112.184525,281.153381 104.248474,278.578644 
	C99.474922,277.029938 97.285316,274.749054 99.059052,269.363678 
z"/>
<path fill="#F2F4FD" opacity="1.000000" stroke="none" 
	d="
M213.011490,249.033783 
	C219.261795,248.046371 223.978638,249.842148 226.729248,255.277206 
	C229.067200,259.896942 228.027893,264.386505 225.028534,268.364899 
	C222.073456,272.284515 216.519272,273.763672 211.505585,272.257202 
	C207.326355,271.001465 204.652405,268.292236 203.805130,263.985657 
	C202.817139,258.963837 204.502335,254.796814 208.347107,251.560898 
	C209.588669,250.515930 211.199448,249.909653 213.011490,249.033783 
M217.584839,251.720963 
	C213.710510,249.817520 210.965927,251.551834 210.710236,255.232147 
	C210.423691,259.356354 211.231812,263.667267 212.287689,267.707703 
	C212.610321,268.942322 215.468475,270.439606 216.899185,270.203430 
	C218.378815,269.959167 220.401443,267.907837 220.672470,266.378632 
	C221.540497,261.480804 221.951080,256.413361 217.584839,251.720963 
z"/>
<path fill="#F2F4FD" opacity="1.000000" stroke="none" 
	d="
M308.829773,271.232208 
	C306.338867,266.027679 306.918518,264.431885 313.319214,262.063873 
	C317.301392,260.590637 319.073395,258.412781 318.076202,254.340866 
	C317.853333,253.430878 316.753052,252.105759 316.040405,252.095413 
	C315.007751,252.080399 313.830780,252.937241 312.948242,253.693832 
	C311.485748,254.947540 310.208679,256.417542 308.465118,257.366516 
	C309.028229,251.791443 317.175293,246.933105 321.232758,249.377655 
	C322.866577,250.362015 324.061493,252.996643 324.369598,255.043762 
	C324.832886,258.121918 324.002380,261.385040 324.379974,264.489471 
	C324.611816,266.395721 326.070953,268.152710 327.556976,271.137787 
	C325.417755,273.858368 322.150574,273.533539 320.179413,271.500885 
	C315.457489,271.500885 312.276428,271.500885 308.829773,271.232208 
M316.899811,262.869781 
	C315.751984,264.519531 314.604156,266.169281 313.456329,267.819031 
	C314.245911,268.278381 315.035492,268.737732 315.825073,269.197083 
	C316.566040,267.457123 317.329498,265.726013 318.020355,263.966400 
	C318.109650,263.739044 317.823822,263.364380 316.899811,262.869781 
z"/>
<path fill="#6F8FDF" opacity="1.000000" stroke="none" 
	d="
M132.118103,242.594955 
	C129.890106,242.763367 127.753510,242.555481 125.334061,241.712555 
	C125.018166,238.012375 125.312164,234.894302 124.827797,231.902237 
	C124.543327,230.145035 123.020813,228.588257 121.987457,226.573425 
	C120.398865,225.484207 118.877998,224.762863 117.357140,224.041519 
	C124.743500,221.448257 131.264969,225.234482 132.079712,232.792648 
	C132.415024,235.903168 132.183304,239.074799 132.118103,242.594955 
M127.384628,226.571167 
	C127.358467,231.307297 127.285606,236.044495 127.394646,240.777496 
	C127.403389,241.156830 128.948914,241.977234 129.287231,241.773590 
	C129.998917,241.345169 130.929581,240.271820 130.813202,239.639313 
	C130.024582,235.353165 128.986389,231.112946 127.384628,226.571167 
z"/>
<path fill="#284BDA" opacity="1.000000" stroke="none" 
	d="
M117.097290,224.077942 
	C118.877998,224.762863 120.398865,225.484207 121.826538,226.677551 
	C121.733345,227.149582 121.405212,227.347763 121.126686,227.353149 
	C119.218262,231.912445 117.588356,236.466354 115.958450,241.020279 
	C114.870033,241.007080 113.781624,240.993881 112.308670,240.494720 
	C112.949570,235.307388 113.975021,230.606003 115.000458,225.904617 
	C115.612785,225.307861 116.225121,224.711105 117.097290,224.077942 
z"/>
<path fill="#6F8FDF" opacity="1.000000" stroke="none" 
	d="
M114.688034,226.078064 
	C113.975021,230.606003 112.949570,235.307388 111.908554,240.410706 
	C111.459236,240.822128 111.025490,240.831619 110.278030,240.750916 
	C111.434753,235.857681 112.905182,231.054596 114.688034,226.078064 
z"/>
<path fill="#284BDA" opacity="1.000000" stroke="none" 
	d="
M364.227539,280.032227 
	C366.280853,275.125458 373.924591,273.321045 377.223602,276.927917 
	C378.117004,277.904663 377.989594,280.786316 377.207581,282.149231 
	C374.430664,286.988831 366.958954,285.880493 364.227539,280.032227 
z"/>
<path fill="#284BDA" opacity="1.000000" stroke="none" 
	d="
M374.560608,253.835938 
	C374.790131,256.184631 375.346954,258.340851 374.735962,260.088867 
	C374.186554,261.660675 372.355316,262.784424 371.089447,264.105774 
	C369.774200,262.800751 368.042145,261.700348 367.270508,260.128448 
	C366.606934,258.776642 366.623077,256.752319 367.101288,255.271652 
	C367.607086,253.705719 368.780060,251.671600 370.100342,251.264359 
	C371.196136,250.926346 372.928925,252.653488 374.560608,253.835938 
z"/>
<path fill="#284BDA" opacity="1.000000" stroke="none" 
	d="
M239.855469,256.502472 
	C241.503006,254.813278 243.115875,252.620163 244.789368,252.572876 
	C246.411972,252.527039 249.118225,254.405533 249.538239,255.935776 
	C250.370392,258.967529 250.644501,262.533783 249.815506,265.507233 
	C249.255478,267.515961 246.414886,268.888885 244.594391,270.546173 
	C243.027588,268.648285 240.802078,266.971313 240.071533,264.792969 
	C239.274582,262.416656 239.862854,259.575745 239.855469,256.502472 
z"/>
<path fill="#2145D9" opacity="1.000000" stroke="none" 
	d="
M121.894257,227.045456 
	C123.020813,228.588257 124.543327,230.145035 124.827797,231.902237 
	C125.312164,234.894302 125.018166,238.012375 124.982559,241.536774 
	C123.023941,241.854019 121.133965,241.711990 118.708641,241.145950 
	C119.250603,236.263870 120.327911,231.805817 121.405212,227.347763 
	C121.405212,227.347763 121.733345,227.149582 121.894257,227.045456 
z"/>
<path fill="#6F8FDF" opacity="1.000000" stroke="none" 
	d="
M121.126694,227.353149 
	C120.327911,231.805817 119.250603,236.263870 118.244965,241.027527 
	C117.673454,241.338684 117.030251,241.344223 116.172760,241.185028 
	C117.588356,236.466354 119.218262,231.912445 121.126694,227.353149 
z"/>
<path fill="#284BDA" opacity="1.000000" stroke="none" 
	d="
M217.888245,251.970734 
	C221.951080,256.413361 221.540497,261.480804 220.672470,266.378632 
	C220.401443,267.907837 218.378815,269.959167 216.899185,270.203430 
	C215.468475,270.439606 212.610321,268.942322 212.287689,267.707703 
	C211.231812,263.667267 210.423691,259.356354 210.710236,255.232147 
	C210.965927,251.551834 213.710510,249.817520 217.888245,251.970734 
z"/>
<path fill="#284BDA" opacity="1.000000" stroke="none" 
	d="
M317.305786,262.963867 
	C317.823822,263.364380 318.109650,263.739044 318.020355,263.966400 
	C317.329498,265.726013 316.566040,267.457123 315.825073,269.197083 
	C315.035492,268.737732 314.245911,268.278381 313.456329,267.819031 
	C314.604156,266.169281 315.751984,264.519531 317.305786,262.963867 
z"/>
<path fill="#284BDA" opacity="1.000000" stroke="none" 
	d="
M127.706749,226.714523 
	C128.986389,231.112946 130.024582,235.353165 130.813202,239.639313 
	C130.929581,240.271820 129.998917,241.345169 129.287231,241.773590 
	C128.948914,241.977234 127.403389,241.156830 127.394646,240.777496 
	C127.285606,236.044495 127.358467,231.307297 127.706749,226.714523 
z"/>
</svg>